<svg width="176" height="30" viewBox="0 0 176 30" fill="none" xmlns="http://www.w3.org/2000/svg">
<path d="M19.4033 0.148743C25.9984 0.148743 30.7714 4.83492 30.7714 10.7753C30.7714 16.8796 26.0046 21.457 19.4033 21.457H4.26852V29.8507H0V0.148743L19.4033 0.148743ZM19.4033 16.8244C23.4522 16.8244 25.7212 14.2639 25.7212 10.7753C25.7212 7.34187 23.4491 4.7813 19.4033 4.7813H4.26852V16.8244H19.4033Z" fill="white"/>
<path d="M136.546 0.148865V4.72631H119.031V12.0772H134.993V16.6561H119.031V25.2122H137.096V29.8447H113.568V0.148865H136.546Z" fill="white"/>
<path d="M161.431 0.148865V25.2183H176V29.8508H156.389V0.148865H161.431Z" fill="white"/>
<path d="M50.4243 0.148865H45.3818V29.8508H50.4243V0.148865Z" fill="white"/>
<path d="M67.2725 29.851L79.2682 13.6868L83.0648 17.425L73.595 29.851H67.2725Z" fill="white"/>
<path d="M66.9561 0.148865L91.2543 29.8508H97.0878L73.0917 0.148865H66.9561Z" fill="white"/>
<path fill-rule="evenodd" clip-rule="evenodd" d="M96.4493 2.49776H89.415V0.200623H98.7852V6.35082H91.9363V7.70767H98.958V10.0048H89.6004V4.05369H96.4493V2.49776Z" fill="white"/>
</svg>
