<svg width="336" height="368" viewBox="0 0 336 368" fill="none" xmlns="http://www.w3.org/2000/svg">
<path d="M51.26 18.02C49.1133 15.8733 46.2 14.8 42.52 14.8C38.84 14.8 35.9267 15.8733 33.78 18.02C32.2467 19.5533 31.1733 23.2333 30.56 29.06C30.2533 34.8867 30.1 50.0667 30.1 74.6V127.04H54.48V74.6C54.48 48.84 54.3267 33.3533 54.02 28.14C53.7133 22.9266 52.7933 19.5533 51.26 18.02ZM32.86 0.999978C34.7 0.386653 37.6133 0.0799899 41.6 0.0799899C49.88 0.0799899 57.7 2.37999 65.06 6.97998C72.42 11.2733 77.7867 17.1 81.16 24.46C82.6933 27.8333 83.6133 37.4933 83.92 53.44C84.2267 69.3867 84.38 117.993 84.38 199.26V367.62H54.48V141.3H30.1V367.62H0.200001V199.72V135.78C0.200001 68.9267 1.27333 31.82 3.42 24.46C4.64667 21.0867 7.25333 17.4067 11.24 13.42C17.0667 7.28666 24.2733 3.14665 32.86 0.999978ZM175.661 148.2C172.288 145.747 168.301 144.52 163.701 144.52H155.881V353.36H161.861C165.541 353.36 169.221 352.593 172.901 351.06C176.581 349.527 178.728 347.687 179.341 345.54C179.955 343.7 180.261 310.887 180.261 247.1V151.88L175.661 148.2ZM125.981 367.62V4.21999H201.421V18.02H155.881V130.26L168.761 130.72C184.401 131.64 196.208 137.927 204.181 149.58L209.241 157.4V340.48L204.641 347.84C198.201 356.733 189.768 362.713 179.341 365.78C174.435 367.007 164.468 367.62 149.441 367.62H125.981ZM301.453 147.28C298.387 144.213 294.247 142.68 289.033 142.68H281.213V351.98H287.193C290.873 351.98 294.553 351.06 298.233 349.22C301.913 347.687 304.06 345.847 304.673 343.7C305.287 341.86 305.593 309.353 305.593 246.18V151.42L301.453 147.28ZM304.673 24.46C300.993 19.2467 295.167 16.64 287.193 16.64H281.213V128.88H289.493C295.32 128.88 299.46 127.5 301.913 124.74C303.753 122.593 304.827 119.373 305.133 115.08C305.44 110.787 305.593 97.14 305.593 74.14C305.593 42.86 305.287 26.3 304.673 24.46ZM259.593 3.76C262.66 3.45332 271.553 3.29998 286.273 3.29998C305.593 3.60666 318.933 8.51332 326.293 18.02C330.587 23.2333 333.193 28.9067 334.113 35.04C335.033 40.8666 335.493 53.9 335.493 74.14C335.493 94.9933 334.88 108.487 333.653 114.62C332.427 120.447 329.207 125.813 323.993 130.72L319.393 135.78L324.913 141.76C330.127 147.587 333.193 154.18 334.113 161.54C335.033 168.593 335.493 190.367 335.493 226.86V247.1C335.493 289.42 335.34 314.72 335.033 323C334.727 331.28 333.653 337.26 331.813 340.94C327.213 350.14 320.467 357.04 311.573 361.64C307.587 363.787 296.393 365.013 277.993 365.32L251.313 366.24V4.21999L259.593 3.76Z" fill="white"/>
</svg>
