<svg width="653" height="271" viewBox="0 0 653 271" fill="none" xmlns="http://www.w3.org/2000/svg">
<path d="M72.42 131.26H132.26C119.68 76.86 109.14 40.14 103.36 20.76L72.42 131.26ZM2.5332e-07 270.66C2.5332e-07 270.66 17.68 262.16 22.44 249.58C46.58 184.64 69.02 105.08 89.76 14.98V14.3C89.76 8.85999 77.52 3.41998 77.52 3.41998H156.4C156.4 3.41998 142.8 7.15999 142.8 19.06C142.8 19.74 143.14 20.42 143.14 21.44C146.2 41.5 152.32 79.24 165.58 137.04C177.48 190.08 189.04 230.2 195.5 251.96C199.58 265.56 210.8 270.66 210.8 270.66H139.06C139.06 270.66 155.72 262.84 155.72 251.96C155.72 230.2 145.86 191.78 134.98 142.48H69.02L38.76 250.94C38.42 251.96 38.42 253.32 38.42 254.34C38.42 265.56 55.08 270.66 55.08 270.66H2.5332e-07ZM349.507 141.46C346.787 141.46 343.727 141.12 340.327 141.12C325.367 141.12 305.647 142.48 289.667 143.5C289.667 201.64 292.047 238.7 293.407 257.06C311.427 258.42 332.847 259.78 347.807 259.78C378.067 259.78 403.227 230.54 403.227 200.28C403.227 170.02 379.767 142.82 349.507 141.46ZM253.287 14.64C252.267 7.49999 241.387 3.41998 241.387 3.41998H354.267C389.627 2.73999 414.107 0.359978 414.107 0.359978C414.107 0.359978 410.027 17.36 408.327 30.96C405.947 47.96 405.947 77.88 405.947 77.88C405.947 77.88 392.007 14.98 351.887 14.98H294.087C292.727 33 290.007 73.8 289.667 129.56L360.727 129.9C399.827 129.9 431.447 161.18 431.447 200.28C431.447 239.38 399.827 271 360.727 271H241.387C241.727 270.66 252.267 266.92 253.287 259.1C255.667 243.8 257.707 200.96 257.707 137.72C257.707 77.2 254.647 33.34 253.287 14.64ZM474.768 14.98C473.748 9.53998 462.188 3.41998 462.188 3.41998H487.008L553.308 2.73999C591.048 2.73999 621.648 33.68 621.648 71.42C621.648 96.24 608.388 118 588.328 129.9C624.368 133.3 652.588 163.56 652.588 200.28C652.588 239.38 620.968 270.66 581.868 270.66H462.528C462.528 270.66 473.748 264.54 474.428 258.76C476.128 240.74 478.508 201.64 478.508 137.38C478.508 73.46 477.828 32.32 474.768 14.98ZM624.368 200.28C624.368 170.02 600.568 142.48 570.308 141.12C561.128 140.78 548.548 140.44 535.968 140.44C527.128 140.44 518.288 140.78 510.468 140.78C510.468 200.62 512.848 238.36 514.548 256.72C532.567 258.08 553.988 259.78 568.948 259.78C599.208 259.78 624.368 230.54 624.368 200.28ZM542.768 14.3H535.628C528.828 14.3 521.688 14.64 514.888 14.98C513.528 33.34 510.808 73.8 510.468 128.88H541.068C570.308 128.88 594.448 100.66 594.448 71.42C594.448 42.18 571.668 15.66 542.768 14.3Z" fill="white"/>
</svg>
