<svg width="599" height="258" viewBox="0 0 599 258" fill="none" xmlns="http://www.w3.org/2000/svg">
<path d="M118.961 163.066C121.539 162.363 124.059 161.074 126.52 159.199C131.441 155.332 134.312 150.586 135.133 144.961C131.383 150.117 127.867 153.984 124.586 156.562C120.484 159.727 115.797 161.953 110.523 163.242C113.219 163.945 116.031 163.887 118.961 163.066ZM102.262 142.5C103.082 145.781 104.84 148.008 107.535 149.18C110.23 150.234 113.043 149.883 115.973 148.125C118.902 146.25 121.07 143.555 122.477 140.039C123.883 136.406 124.176 132.949 123.355 129.668C122.418 126.387 120.602 124.219 117.906 123.164C115.211 122.109 112.398 122.461 109.469 124.219C106.539 125.977 104.371 128.672 102.965 132.305C101.559 135.82 101.324 139.219 102.262 142.5ZM63.0625 79.043C69.3906 68.8477 74.7812 60.7031 79.2344 54.6094C85.5625 45.8203 91.7148 38.3203 97.6914 32.1094L100.328 29.4727C101.266 28.5352 102.145 27.7734 102.965 27.1875L105.777 24.7266L108.59 22.6172C113.512 19.3359 117.965 17.5195 121.949 17.168C118.082 16.9336 113.336 18.2812 107.711 21.2109L104.547 23.1445L101.559 25.4297C100.738 26.0156 99.8008 26.7773 98.7461 27.7148L95.9336 30.1758C89.7227 35.8008 83.2188 43.3008 76.4219 52.6758C70.5625 60.8789 65.3477 69.2578 60.7773 77.8125C55.8555 87.0703 51.6953 95.9766 48.2969 104.531L55.6797 91.6992C58.4922 86.8945 60.9531 82.6758 63.0625 79.043ZM74.4883 35.2734C93.5898 11.9531 110.758 1.46484 125.992 3.80859C141.227 6.26953 155.523 19.5703 168.883 43.7109C180.602 65.1562 189.859 91.582 196.656 122.988C203.219 153.223 205.855 180.176 204.566 203.848C203.16 229.16 197.418 244.102 187.34 248.672C178.785 252.539 170.23 252.656 161.676 249.023C155.23 246.211 148.023 240.879 140.055 233.027L135.309 227.93L130.562 223.008C126.695 218.789 123.766 215.742 121.773 213.867C115.328 207.656 109.938 204.551 105.602 204.551C101.383 204.551 96.168 207.832 89.957 214.395C88.1992 216.27 85.3867 219.492 81.5195 224.062L76.9492 229.336C75.1914 231.328 73.5508 233.145 72.0273 234.785C64.1758 243.105 56.7344 248.789 49.7031 251.836C40.3281 255.938 30.6602 256.055 20.6992 252.188C7.45703 247.148 2.06641 230.742 4.52734 202.969C6.75391 177.656 14.6641 148.711 28.2578 116.133C41.9688 83.3203 57.3789 56.3672 74.4883 35.2734ZM342.379 190.664C345.895 188.789 348.766 185.859 350.992 181.875C352.867 178.242 353.805 174.316 353.805 170.098C353.805 165.996 352.867 162.188 350.992 158.672C351.578 162.773 351.637 166.523 351.168 169.922C350.699 173.906 349.645 177.363 348.004 180.293C346.246 183.574 343.902 186.27 340.973 188.379C337.926 190.605 334.469 192.07 330.602 192.773C334.586 193.477 338.512 192.773 342.379 190.664ZM318.824 158.848C317.77 162.012 317.828 165.41 319 169.043C320.289 172.676 322.281 175.488 324.977 177.48C327.672 179.473 330.367 180 333.062 179.062C335.758 178.242 337.633 176.191 338.688 172.91C339.742 169.746 339.625 166.348 338.336 162.715C337.164 159.082 335.23 156.27 332.535 154.277C329.84 152.402 327.145 151.875 324.449 152.695C321.754 153.633 319.879 155.684 318.824 158.848ZM243.414 76.582C247.164 65.0977 251.441 55.7813 256.246 48.6328C261.168 40.7812 268.492 33.9258 278.219 28.0664C286.656 23.0273 296.324 19.4531 307.223 17.3438C302.535 17.5781 297.379 18.457 291.754 19.9805C286.715 21.3867 281.793 23.3203 276.988 25.7812C272.418 28.2422 268.082 31.2305 263.98 34.7461C259.996 38.1445 256.48 42.1875 253.434 46.875C248.043 55.0781 243.883 64.7461 240.953 75.8789C239.781 80.332 238.727 85.4883 237.789 91.3477C237.086 96.9727 236.617 102.188 236.383 106.992C238.375 95.1562 240.719 85.0195 243.414 76.582ZM305.816 92.7539C307.105 99.4336 311.207 103.008 318.121 103.477C350.465 105.703 373.609 116.953 387.555 137.227C393.414 145.781 397.164 155.449 398.805 166.23C400.328 176.309 399.859 186.445 397.398 196.641C394.117 210.469 387.789 222.188 378.414 231.797C369.508 240.938 358.727 247.441 346.07 251.309C333.531 255.059 320.465 255.938 306.871 253.945C292.809 251.719 279.742 246.562 267.672 238.477C253.727 229.219 242.77 214.746 234.801 195.059C227.418 177.012 223.316 156.68 222.496 134.062C221.676 112.266 224.02 91.875 229.527 72.8906C235.152 52.9688 243.355 37.9687 254.137 27.8906C265.621 17.1094 279.508 9.78516 295.797 5.91797C310.328 2.63672 324.977 2.46094 339.742 5.39062C353.805 8.32031 365.055 13.5938 373.492 21.2109C382.398 29.1797 386.207 38.1445 384.918 48.1055C383.98 54.9023 380.641 59.7656 374.898 62.6953C370.68 64.9219 364.059 66.5039 355.035 67.4414L349.234 67.9688L343.258 68.4961C338.57 68.8477 334.645 69.3164 331.48 69.9023C322.691 71.3086 315.836 73.9453 310.914 77.8125C308.805 79.4531 307.281 81.6797 306.344 84.4922C305.406 87.1875 305.23 89.9414 305.816 92.7539ZM535.738 183.281C539.488 181.406 542.359 178.477 544.352 174.492C546.227 170.625 546.988 166.582 546.637 162.363C546.402 158.145 545.23 154.336 543.121 150.938C544.996 159.492 544.41 166.816 541.363 172.91C539.723 176.191 537.379 178.945 534.332 181.172C531.402 183.281 527.945 184.688 523.961 185.391C528.062 186.094 531.988 185.391 535.738 183.281ZM509.547 153.75C509.195 157.148 509.957 160.547 511.832 163.945C513.824 167.344 516.402 169.746 519.566 171.152C522.613 172.559 525.367 172.559 527.828 171.152C530.289 169.746 531.695 167.344 532.047 163.945C532.398 160.547 531.637 157.148 529.762 153.75C527.77 150.352 525.191 147.949 522.027 146.543C518.98 145.137 516.227 145.137 513.766 146.543C511.305 147.949 509.898 150.352 509.547 153.75ZM504.098 87.832C501.754 89.1211 499.176 90.1172 496.363 90.8203C499.176 91.5234 502.105 91.2891 505.152 90.1172C507.965 89.0625 510.543 87.4219 512.887 85.1953C517.691 80.2734 519.742 74.8242 519.039 68.8477C517.984 71.6602 516.812 74.1797 515.523 76.4062C513.883 78.9844 512.184 81.1523 510.426 82.9102C508.668 84.668 506.559 86.3086 504.098 87.832ZM497.77 60.5859C495.66 61.5234 493.961 63.1641 492.672 65.5078C491.383 67.7344 490.855 69.9609 491.09 72.1875C491.324 74.4141 492.203 75.9961 493.727 76.9336C495.367 77.8711 497.184 77.8711 499.176 76.9336C501.285 75.9961 502.984 74.3555 504.273 72.0117C505.562 69.7852 506.09 67.5586 505.855 65.332C505.621 63.1055 504.742 61.5234 503.219 60.5859C501.578 59.6484 499.762 59.6484 497.77 60.5859ZM454.176 44.9414C457.105 40.6055 459.977 37.0312 462.789 34.2188C465.836 30.9375 469.293 28.0078 473.16 25.4297C480.66 20.2734 489.215 17.2852 498.824 16.4648C494.488 16.2305 489.859 16.6406 484.938 17.6953C480.836 18.75 476.441 20.625 471.754 23.3203C464.254 27.6563 457.516 34.2188 451.539 43.0078C446.383 50.7422 442.34 59.2383 439.41 68.4961C436.48 77.7539 434.547 86.8945 433.609 95.918C436.188 85.8398 438.941 76.9922 441.871 69.375C445.621 59.7656 449.723 51.6211 454.176 44.9414ZM537.145 95.3906C535.973 98.4375 536.383 100.371 538.375 101.191C558.18 109.043 573.414 121.348 584.078 138.105C593.922 153.691 598.258 170.273 597.086 187.852C595.914 205.781 589.176 220.723 576.871 232.676C563.512 245.918 545.465 253.301 522.73 254.824C498.941 256.348 478.609 250.664 461.734 237.773C446.617 226.172 435.191 209.531 427.457 187.852C420.309 167.93 417.086 146.074 417.789 122.285C418.492 98.9648 422.828 77.4023 430.797 57.5977C438.531 38.4961 449.078 24.2578 462.438 14.8828C474.156 6.79688 486.871 2.92969 500.582 3.28125C513.121 3.63281 524.195 7.32422 533.805 14.3555C543.414 21.2695 549.039 29.6484 550.68 39.4922C552.203 48.3984 552.027 57.0117 550.152 65.332C548.863 71.1914 546.637 77.2852 543.473 83.6133C542.887 84.7852 542.242 86.0156 541.539 87.3047L540.66 88.8867L539.781 90.293C538.492 92.6367 537.613 94.3359 537.145 95.3906Z" fill="white"/>
</svg>
