<svg width="516" height="343" viewBox="0 0 516 343" fill="none" xmlns="http://www.w3.org/2000/svg">
<path d="M150.1 181.8C147.8 224.12 145.5 266.44 142.74 308.3C142.28 317.04 135.84 322.56 128.48 322.56C102.72 322.56 103.64 297.26 103.64 275.18C103.64 258.62 103.18 243.44 89.38 243.44C68.22 243.44 47.06 245.74 25.9 247.12C17.62 247.58 14.86 251.72 14.86 259.54C14.86 265.98 15.32 271.96 15.32 278.4C15.32 289.9 17.62 303.24 8.88 311.98C1.52 304.62 0.600001 294.04 0.600001 284.38C0.600001 283.46 0.600001 282.54 0.600001 281.62C6.58 198.82 5.66 112.34 47.06 40.12C56.72 21.26 68.22 12.52 84.78 12.52C113.76 12.52 138.14 37.36 142.28 64.5C145.04 84.74 148.26 104.98 148.26 125.22C148.26 143.62 147.8 162.94 147.8 181.8C148.72 181.8 149.18 181.8 150.1 181.8ZM105.02 147.76C105.48 147.76 105.94 147.76 106.4 147.76C104.1 113.26 104.56 30.92 82.48 30.92C67.3 30.92 57.64 47.48 52.12 58.52C26.82 108.66 23.14 162.94 16.7 217.22C16.7 226.42 20.84 230.1 30.04 230.1C48.9 230.1 68.22 230.1 86.62 228.72C103.18 227.8 105.48 217.22 105.48 200.2C105.48 193.76 105.02 186.86 105.02 178.58C105.02 168.46 105.02 158.34 105.02 147.76ZM244.896 127.98C268.356 160.18 292.736 209.86 292.736 259.08C292.736 279.78 288.596 300.48 278.016 319.8C271.116 331.3 263.756 336.36 255.936 336.36C247.656 336.36 238.916 330.84 229.716 321.18C211.776 301.4 206.716 277.94 209.016 251.72C209.476 247.58 210.396 243.44 212.696 239.76C219.596 226.42 230.636 214.46 243.516 205.72C246.276 204.34 252.256 204.8 255.016 206.64C257.776 208.48 260.996 214 259.616 216.3C257.776 225.96 252.716 235.62 247.656 244.36C241.676 254.94 238.916 265.52 238.916 276.1C238.916 287.14 242.136 298.18 247.656 309.68C248.116 311.98 252.256 314.74 254.556 314.74C257.316 314.74 259.616 311.52 260.996 309.22C270.656 292.66 277.556 274.72 276.636 255.86C274.796 214.46 262.836 176.28 242.136 140.86C238.916 136.72 236.616 134.88 232.936 139.94C229.256 144.54 226.956 148.22 222.816 151.9C217.296 158.34 209.476 156.96 204.876 149.6C202.116 145.92 200.736 140.86 200.736 136.72C200.736 131.66 202.576 127.52 207.636 124.76C226.036 114.64 232.016 94.86 239.836 77.38C252.716 52.08 267.896 29.08 292.736 13.44C298.716 9.76 305.616 6.07999 312.516 4.69998C340.116 0.559979 353.456 10.68 352.996 36.9C352.536 45.18 352.996 54.38 350.236 61.74C342.876 80.6 332.756 99.46 324.016 118.32C321.716 123.84 312.976 124.3 307.916 119.7C304.696 116.48 302.856 113.26 305.156 108.66C313.436 94.4 322.636 79.68 329.996 64.96C335.976 53 339.196 39.66 337.356 26.32C335.976 16.66 328.156 11.6 318.956 15.74C301.936 22.18 288.136 33.22 278.936 49.32C266.516 69.56 255.476 90.26 243.516 111.42C239.836 117.4 240.756 122 244.896 127.98ZM411.998 227.34C433.618 247.12 435.458 264.6 437.298 285.3C439.138 302.78 434.998 342.8 413.838 342.8C398.658 342.8 387.158 340.04 377.498 327.62C366.458 313.82 358.638 297.72 355.418 280.7C352.658 267.82 351.738 253.56 350.358 240.22C349.438 236.08 348.978 229.18 348.978 222.28C348.978 214.46 349.438 206.64 350.358 201.58C356.798 154.66 371.978 110.5 390.838 67.26C400.038 45.64 414.758 28.16 436.378 17.58C443.738 14.36 452.018 12.52 460.758 12.52C480.078 12.52 499.858 20.8 510.898 35.52C513.658 39.2 515.038 44.72 515.038 51.16C515.038 85.2 479.618 153.74 410.158 205.26C398.658 213.08 402.798 218.14 411.998 227.34ZM396.358 157.42C392.678 169.38 389.918 179.04 387.618 188.7C387.618 192.38 387.618 199.28 390.838 201.58C394.518 202.5 398.658 199.28 400.498 197.44C460.758 145.92 480.998 122.46 500.778 59.9C502.158 56.68 502.158 52.54 501.698 48.86C500.318 35.98 491.578 27.7 480.538 27.7C476.398 27.7 472.258 29.08 467.658 31.38C462.138 33.22 457.538 36.9 453.398 40.12C434.998 53.92 425.798 74.16 417.978 94.4C409.698 115.56 402.798 137.64 396.358 157.42ZM410.618 326.24C423.038 322.56 426.718 309.68 426.718 295.88C426.718 280.24 422.118 263.68 418.898 257.7C409.238 239.76 406.018 234.24 391.298 231.02C385.778 229.64 381.638 232.4 380.718 238.84C377.498 265.06 385.318 289.44 391.758 313.82C392.218 315.66 393.138 317.5 394.518 318.42C397.738 323.48 405.558 327.62 410.618 326.24Z" fill="white"/>
</svg>
