<svg width="391" height="283" viewBox="0 0 391 283" fill="none" xmlns="http://www.w3.org/2000/svg">
<path d="M3.1 280C1.23333 280 0.433333 278.667 0.7 276L52.7 20.8C52.9667 18.9333 54.1667 18 56.3 18H84.3C86.4333 18 87.6333 18.9333 87.9 20.8L140.3 276C140.567 278.667 139.767 280 137.9 280H115.9C114.3 280 113.233 279.2 112.7 277.6L80.3 104.4C78.4333 95.0667 76.5667 85.8667 74.7 76.8C73.1 67.4667 71.6333 58.1333 70.3 48.8H69.5C68.1667 58.1333 66.7 67.4667 65.1 76.8C63.7667 85.8667 62.1667 95.2 60.3 104.8L27.9 277.6C27.6333 279.2 26.7 280 25.1 280H3.1ZM35.1 215.6L39.9 190.4H99.9L105.5 215.6H35.1ZM203.847 282.4C186.78 282.4 173.98 277.2 165.447 266.8C157.18 256.4 153.047 239.333 153.047 215.6V101.6C153.047 83.4667 154.914 69.0667 158.647 58.4C162.38 47.7333 168.247 39.4666 176.247 33.6C182.114 29.0667 188.38 25.4667 195.047 22.8C201.714 20.1333 208.38 17.3333 215.047 14.4C221.98 11.2 228.647 6.79998 235.047 1.19999C235.847 0.666647 236.647 0.533315 237.447 0.799994C238.247 1.06666 238.78 1.73332 239.047 2.79999L244.247 22C244.78 24.4 244.514 26 243.447 26.8C238.914 31.0667 233.714 34.5333 227.847 37.2C221.98 39.6 215.98 42 209.847 44.4C203.98 46.5333 198.514 49.6 193.447 53.6C187.58 58.1333 183.714 64 181.847 71.2C179.98 78.1333 179.047 87.4667 179.047 99.2V215.2C179.047 229.6 180.914 240.267 184.647 247.2C188.38 253.867 194.78 257.2 203.847 257.2C212.914 257.2 219.447 253.867 223.447 247.2C227.447 240.267 229.447 229.6 229.447 215.2V146C229.447 136.667 228.114 130.133 225.447 126.4C223.047 122.4 219.18 120.4 213.847 120.4C207.447 120.4 201.047 122.933 194.647 128C188.514 133.067 182.38 139.6 176.247 147.6L174.247 124.8C181.714 115.733 189.314 108.533 197.047 103.2C204.78 97.8667 213.18 95.2 222.247 95.2C233.447 95.2 241.847 99.0667 247.447 106.8C253.047 114.533 255.847 126.8 255.847 143.6L255.447 215.6C255.18 238 250.78 254.8 242.247 266C233.714 276.933 220.914 282.4 203.847 282.4ZM338.231 282.4C319.831 282.4 306.631 277.2 298.631 266.8C290.631 256.133 286.631 239.867 286.631 218V63.2C286.631 43.4666 290.765 28.8 299.031 19.2C307.565 9.33333 319.965 4.4 336.231 4.4C352.498 4.4 364.498 8.93333 372.231 18C379.965 27.0666 383.831 41.7333 383.831 62C383.831 77.4667 381.698 90.4 377.431 100.8C373.431 111.2 367.565 118.667 359.831 123.2V123.6C369.965 124.933 377.565 129.733 382.631 138C387.965 146 390.631 157.6 390.631 172.8V216.8C390.631 237.867 386.231 254.133 377.431 265.6C368.898 276.8 355.831 282.4 338.231 282.4ZM337.831 257.2C347.431 257.2 354.231 253.867 358.231 247.2C362.498 240.533 364.631 230.267 364.631 216.4V172.4C364.631 160.667 362.898 152.533 359.431 148C355.965 143.2 350.231 140.8 342.231 140.8C337.965 140.8 333.165 141.6 327.831 143.2C322.765 144.8 317.698 146.8 312.631 149.2V217.2C312.631 231.067 314.365 241.2 317.831 247.6C321.298 254 327.965 257.2 337.831 257.2ZM312.631 126L329.431 120C338.765 116.8 345.831 110.8 350.631 102C355.431 93.2 357.831 81.2 357.831 66C357.831 52.6667 355.965 43.3333 352.231 38C348.765 32.4 343.165 29.6 335.431 29.6C327.698 29.6 321.965 32.1333 318.231 37.2C314.498 42 312.631 49.8666 312.631 60.8V126Z" fill="white"/>
</svg>
